<?xml version="1.0" standalone="no"?>
<!DOCTYPE svg PUBLIC "-//W3C//DTD SVG 20010904//EN"
 "http://www.w3.org/TR/2001/REC-SVG-20010904/DTD/svg10.dtd">
<svg version="1.0" xmlns="http://www.w3.org/2000/svg"
 width="968.000000pt" height="1280.000000pt" viewBox="0 0 968.000000 1280.000000"
 preserveAspectRatio="xMidYMid meet">
<metadata>
Created by potrace 1.15, written by Peter Selinger 2001-2017
</metadata>
<g transform="translate(0.000000,1280.000000) scale(0.100000,-0.100000)"
fill="#000000" stroke="none">
<path d="M6294 11688 c-15 -24 -36 -63 -47 -88 -30 -69 -74 -127 -100 -134
-28 -7 -153 -128 -182 -176 -50 -84 -95 -176 -95 -196 0 -8 -11 -26 -25 -40
-14 -14 -29 -40 -32 -57 -3 -18 -12 -41 -19 -52 -7 -11 -18 -45 -25 -75 -6
-30 -18 -67 -25 -82 -8 -15 -14 -36 -14 -48 0 -31 -27 -24 -39 11 -6 18 -11
39 -11 47 0 9 -18 52 -39 96 -22 45 -50 108 -62 141 -13 33 -39 82 -59 110
-33 46 -35 48 -38 24 -2 -14 11 -62 28 -108 44 -119 64 -361 33 -392 -6 -6 -8
-30 -6 -53 3 -24 1 -46 -4 -49 -5 -3 -27 14 -47 39 -21 25 -40 43 -42 41 -3
-2 13 -58 35 -123 50 -151 66 -217 58 -238 -9 -23 -23 -13 -44 32 -9 20 -33
60 -52 87 -51 74 -212 254 -232 260 -10 4 -38 22 -61 42 -24 20 -65 47 -93 60
-70 33 -112 59 -158 98 -24 21 -55 36 -80 40 -64 11 -71 16 -218 145 -46 40
-51 42 -44 20 22 -69 49 -114 95 -157 44 -41 50 -51 48 -82 -3 -32 1 -38 34
-56 27 -14 38 -27 38 -42 0 -16 13 -31 40 -48 22 -14 40 -32 40 -39 0 -8 15
-24 34 -35 18 -12 36 -30 39 -41 3 -11 21 -27 41 -36 21 -11 39 -28 45 -45 6
-18 19 -31 35 -35 14 -3 34 -20 45 -37 10 -16 39 -40 63 -51 32 -16 42 -26 40
-41 -2 -14 7 -24 30 -34 18 -7 49 -28 68 -45 19 -18 52 -41 73 -52 21 -10 47
-27 57 -36 11 -10 23 -18 27 -18 12 0 36 -41 28 -48 -3 -3 -18 2 -33 11 -15
10 -76 43 -137 73 -60 30 -119 60 -130 67 -11 6 -40 24 -65 38 -55 32 -104 46
-98 27 3 -7 15 -18 29 -25 130 -65 329 -189 345 -215 19 -31 -62 -16 -119 23
-24 16 -56 29 -73 29 -17 0 -47 7 -67 15 -19 8 -86 23 -149 34 -172 29 -253
30 -428 0 -56 -9 -113 -21 -337 -70 -23 -5 -65 -9 -92 -9 -55 0 -67 -13 -23
-26 37 -10 242 -13 248 -2 3 4 32 8 65 8 45 0 67 -5 87 -20 25 -19 34 -20 76
-10 53 12 66 8 66 -21 0 -16 7 -19 49 -19 34 0 51 -4 55 -15 4 -11 20 -15 58
-15 30 0 62 -6 74 -14 11 -8 40 -16 65 -18 32 -2 45 -8 47 -20 3 -16 -5 -18
-65 -18 -37 0 -88 -7 -113 -14 l-45 -15 102 0 c96 -1 109 -4 202 -41 54 -22
104 -40 109 -40 18 0 25 -22 11 -31 -8 -5 -31 -9 -51 -9 -44 0 -70 -9 -62 -21
13 -22 204 3 315 42 51 17 61 18 109 6 50 -13 51 -14 34 -31 -14 -15 -29 -17
-78 -13 -74 5 -133 -12 -196 -58 -79 -58 -274 -91 -360 -61 -49 17 -59 14 -40
-9 20 -25 88 -37 198 -36 114 2 126 -7 58 -42 -31 -17 -59 -20 -182 -20 -79 0
-144 -4 -144 -9 0 -20 164 -78 245 -85 132 -13 167 -9 237 25 36 18 73 29 81
26 11 -4 24 7 42 34 28 42 83 84 123 95 19 4 22 2 18 -10 -11 -27 -198 -303
-206 -303 -4 0 -34 12 -66 26 -47 21 -62 23 -81 15 -19 -9 -33 -7 -69 9 -24
11 -61 21 -82 22 -20 0 -61 7 -90 14 -37 9 -61 10 -79 3 -14 -5 -53 -6 -88 -3
-50 5 -68 3 -86 -10 -15 -10 -44 -16 -82 -16 -42 0 -59 -4 -63 -15 -4 -9 -19
-15 -35 -15 -30 0 -109 -17 -144 -31 -11 -4 -40 -10 -65 -13 -25 -3 -74 -12
-110 -20 -73 -17 -236 -21 -274 -6 -15 5 -28 6 -31 0 -5 -9 142 -58 175 -58
47 -1 128 -16 147 -28 12 -8 44 -14 71 -14 31 0 54 -5 62 -14 8 -11 18 -12 36
-5 42 15 114 11 121 -7 5 -13 21 -15 102 -12 92 3 96 2 99 -18 3 -20 8 -21 45
-17 23 3 50 10 60 15 13 7 27 3 52 -12 33 -21 33 -21 104 -2 70 19 70 19 84
-1 13 -20 15 -20 80 -4 112 28 115 25 68 -75 -16 -35 -39 -85 -51 -113 -41
-98 -58 -108 -88 -48 -24 46 -125 129 -210 171 -57 29 -92 39 -92 27 0 -12 85
-143 106 -163 13 -13 24 -33 24 -45 0 -13 5 -28 10 -33 6 -6 23 -48 40 -94
l29 -85 -27 -29 c-178 -190 -263 -275 -283 -281 -11 -4 -26 -19 -34 -35 -8
-16 -65 -73 -125 -126 -108 -94 -138 -129 -125 -142 4 -4 70 26 149 66 78 39
148 72 156 72 8 0 35 11 59 25 23 14 47 25 52 25 5 0 37 17 72 39 35 21 74 42
87 46 13 4 33 16 44 26 11 11 23 19 27 19 4 0 12 -33 19 -72 6 -40 20 -91 30
-113 11 -22 24 -71 31 -110 10 -62 56 -173 114 -275 17 -29 20 -76 5 -85 -5
-3 -42 11 -81 31 -78 39 -150 64 -187 64 -12 0 -48 13 -80 29 -31 15 -72 31
-91 35 -19 3 -42 12 -50 20 -9 7 -38 21 -66 30 -74 26 -119 33 -405 65 -42 5
-79 5 -84 0 -6 -5 -49 -9 -97 -9 -48 0 -90 -4 -93 -9 -3 -5 -27 -12 -53 -16
-27 -3 -75 -15 -107 -26 -33 -10 -70 -19 -83 -19 -13 0 -40 -8 -61 -19 -20
-10 -57 -22 -82 -26 -25 -4 -58 -13 -75 -20 -16 -8 -45 -17 -64 -20 -18 -4
-50 -17 -70 -29 -33 -19 -51 -21 -231 -23 -235 -2 -219 0 -196 -18 25 -19 146
-58 270 -86 84 -20 99 -27 107 -48 9 -23 12 -24 89 -18 50 4 82 3 86 -4 14
-23 56 -29 115 -17 47 9 63 9 83 -1 15 -9 40 -11 67 -7 41 6 124 10 379 21
184 8 224 12 264 23 25 7 44 8 51 2 7 -6 33 -3 70 6 33 9 74 14 91 11 17 -3
36 -2 40 3 5 5 32 9 59 10 105 2 426 -10 437 -16 11 -7 -2 -13 -192 -85 -119
-45 -243 -79 -290 -79 -23 0 -33 -5 -37 -19 -5 -20 -46 -31 -121 -31 -49 0
-82 -14 -82 -34 0 -16 -21 -22 -100 -31 -85 -10 -111 -23 -104 -51 7 -27 -2
-30 -111 -38 -91 -6 -108 -13 -101 -40 5 -19 -2 -24 -47 -40 -65 -22 -181 -67
-186 -72 -2 -2 1 -10 8 -17 9 -12 3 -17 -31 -30 -24 -8 -64 -20 -91 -27 -52
-14 -65 -26 -48 -43 19 -19 12 -25 -59 -42 -65 -16 -90 -37 -57 -48 23 -7 -11
-34 -67 -51 -68 -22 -91 -39 -91 -68 0 -19 -11 -27 -65 -49 -54 -21 -64 -30
-62 -47 3 -18 -5 -22 -55 -32 -78 -15 -108 -32 -106 -57 2 -16 -8 -23 -50 -35
-29 -9 -67 -19 -84 -23 -26 -5 -33 -12 -33 -30 0 -28 -17 -36 -95 -44 -53 -5
-60 -9 -63 -29 -2 -13 -14 -27 -28 -32 -13 -5 -44 -18 -68 -29 -50 -24 -114
-39 -206 -52 -158 -21 -225 -42 -320 -100 -36 -22 -41 -29 -27 -35 9 -3 34 -3
55 0 294 51 581 77 607 56 10 -8 23 -7 52 5 21 9 63 17 93 17 31 0 74 9 100
20 25 11 61 20 80 19 19 0 64 8 101 19 36 11 88 20 114 20 44 0 111 26 184 72
15 9 23 10 32 1 14 -14 48 -3 143 49 56 31 78 38 103 33 37 -7 84 14 157 69
32 26 56 36 81 36 29 0 44 9 83 48 26 26 62 67 80 90 27 34 39 42 66 42 19 0
39 7 47 17 8 9 55 47 104 84 114 86 132 102 184 167 24 28 51 52 61 52 9 0 45
29 78 65 33 36 77 72 96 80 19 8 45 25 58 37 13 13 70 67 125 120 71 68 107
96 118 92 11 -4 14 -13 9 -28 -6 -18 -47 -80 -64 -96 -3 -3 -21 -25 -40 -50
-19 -25 -60 -72 -92 -105 -32 -33 -74 -90 -93 -126 -19 -37 -42 -72 -50 -79
-9 -8 -30 -41 -46 -74 -17 -34 -39 -70 -49 -81 -32 -35 -115 -228 -139 -321
-6 -23 -23 -57 -39 -76 -30 -39 -62 -100 -86 -170 -10 -25 -24 -49 -31 -52 -8
-3 -15 -13 -15 -22 0 -10 -5 -32 -12 -50 -9 -26 -9 -39 1 -60 10 -24 9 -33
-10 -70 l-23 -42 -53 5 c-32 4 -53 2 -53 -4 0 -11 43 -33 65 -33 22 0 45 -29
45 -56 0 -14 -8 -39 -17 -57 -9 -18 -20 -57 -24 -87 -4 -30 -16 -78 -26 -106
-16 -47 -22 -52 -61 -63 -23 -6 -64 -11 -92 -11 -27 0 -52 -4 -55 -10 -3 -5
-33 -10 -66 -10 -33 0 -59 -4 -59 -10 0 -6 -27 -10 -60 -10 -53 0 -60 -2 -60
-20 0 -17 -7 -20 -39 -20 -23 0 -57 -10 -82 -25 -24 -14 -59 -25 -78 -25 -20
0 -43 -8 -55 -19 -20 -18 -77 -34 -186 -50 l-45 -7 39 -9 c53 -11 273 1 368
19 52 11 144 16 289 16 225 2 237 -1 223 -45 -4 -11 -8 -84 -10 -162 -2 -135
-1 -143 17 -143 17 0 19 -8 19 -64 0 -35 -5 -88 -11 -117 -14 -72 10 -245 44
-313 13 -26 27 -3 27 47 0 21 20 95 44 165 24 70 54 156 66 192 12 36 27 74
33 85 7 11 24 45 40 75 15 30 36 62 47 72 10 10 22 38 25 62 6 38 13 49 44 67
41 26 51 26 146 -2 140 -42 220 -72 232 -87 21 -26 -18 -83 -99 -144 -41 -30
-89 -63 -108 -73 -19 -10 -42 -23 -50 -30 -8 -7 -45 -29 -81 -47 l-67 -34 79
-12 c43 -7 101 -10 129 -6 27 4 50 4 50 2 0 -3 -9 -34 -20 -69 -21 -66 -48
-115 -57 -105 -3 3 -15 -9 -27 -27 -18 -27 -21 -40 -15 -82 4 -27 3 -57 -2
-65 -24 -44 -25 -44 -85 14 -51 48 -71 60 -142 82 -46 14 -87 23 -90 19 -4 -4
13 -24 37 -44 24 -20 65 -57 90 -82 25 -25 61 -54 79 -65 32 -18 33 -22 27
-59 -6 -41 -88 -276 -129 -375 -13 -30 -27 -65 -31 -77 -12 -41 -29 -25 -80
74 -48 94 -52 98 -114 132 -35 19 -80 37 -100 41 -20 4 -45 11 -55 16 -18 7
-18 5 3 -24 12 -18 32 -37 44 -44 62 -33 158 -123 177 -165 11 -25 20 -49 20
-54 0 -15 -37 -10 -82 10 -122 56 -157 71 -165 71 -4 1 -26 9 -48 20 -22 11
-48 19 -57 20 -9 0 -19 4 -23 10 -3 5 -30 17 -59 26 -53 17 -54 18 -61 62 -4
24 -15 60 -26 78 -10 19 -19 47 -19 62 0 16 -4 32 -8 38 -5 5 -15 29 -22 54
-18 60 -48 120 -60 120 -6 0 -10 6 -10 13 0 27 -52 119 -69 124 -11 3 -27 22
-36 43 -10 22 -29 49 -42 62 -14 13 -29 33 -34 45 -4 12 -20 27 -35 35 -15 7
-35 25 -43 39 -41 69 -56 89 -66 89 -5 0 -21 27 -33 60 -17 44 -29 60 -42 60
-19 0 -48 52 -64 114 -4 15 -19 39 -35 51 -18 16 -34 45 -46 87 -10 35 -26 90
-36 122 -11 33 -19 71 -19 86 0 25 -16 50 -31 50 -25 0 -42 -165 -28 -265 6
-38 12 -110 14 -160 4 -76 23 -165 44 -200 3 -5 6 -26 7 -45 3 -75 35 -157 85
-222 16 -20 29 -47 29 -60 0 -15 17 -40 45 -68 25 -24 45 -52 45 -62 0 -29 85
-105 154 -138 35 -16 69 -37 76 -45 7 -8 18 -15 24 -15 6 0 23 -10 37 -22 14
-13 34 -28 45 -34 24 -14 31 -44 10 -44 -9 0 -53 9 -98 21 -46 11 -99 24 -118
29 -19 5 -60 16 -90 25 -30 10 -89 25 -130 35 -41 10 -120 35 -175 55 -68 25
-105 34 -115 27 -9 -6 -41 -2 -89 10 -51 13 -77 16 -79 9 -6 -17 -49 -13 -89
9 -39 21 -74 24 -108 11 -13 -5 -35 -2 -60 9 -57 24 -219 31 -259 12 -25 -13
-37 -13 -75 -3 -40 11 -47 10 -58 -5 -10 -14 -23 -15 -85 -10 -67 7 -76 5 -92
-13 -17 -18 -31 -21 -108 -21 -68 0 -98 -5 -126 -19 -21 -11 -54 -19 -75 -18
-25 1 -44 -6 -60 -21 -18 -17 -36 -22 -75 -22 -59 0 -99 -15 -107 -42 -4 -10
-13 -18 -22 -18 -31 0 -93 -23 -93 -35 0 -30 -84 -82 -204 -126 -33 -12 -94
-45 -135 -72 -79 -52 -179 -136 -145 -122 10 4 71 23 134 42 63 18 145 43 183
54 84 25 313 33 364 12 21 -8 52 -11 91 -7 51 6 62 4 79 -13 18 -18 31 -19
142 -17 118 3 122 3 116 -16 -6 -19 -1 -20 62 -21 37 -1 85 -1 106 0 23 2 37
-2 37 -9 0 -14 128 -12 147 3 7 5 15 1 23 -12 14 -27 30 -26 112 3 45 17 79
23 102 19 22 -3 58 3 101 17 49 16 70 19 78 11 19 -19 71 -12 123 15 37 19 66
26 119 28 39 1 79 7 90 14 36 20 194 59 285 68 30 3 93 11 140 17 109 15 212
15 217 1 2 -7 -14 -14 -39 -17 -120 -16 -269 -50 -313 -71 -27 -13 -84 -34
-125 -47 -90 -26 -137 -46 -146 -60 -6 -11 -19 -17 -136 -59 -83 -31 -138 -54
-179 -75 -14 -8 -76 -32 -138 -54 -72 -26 -125 -52 -150 -73 -22 -18 -56 -40
-77 -47 -59 -21 -131 -69 -155 -102 -11 -16 -48 -43 -82 -60 -33 -17 -67 -38
-75 -46 -8 -8 -26 -21 -39 -30 -15 -10 -22 -22 -18 -33 5 -16 -19 -39 -60 -60
-5 -3 -41 -25 -78 -49 -53 -34 -66 -47 -62 -61 4 -13 -1 -23 -17 -31 -44 -24
-147 -122 -157 -150 -5 -15 -32 -51 -60 -78 -30 -30 -51 -60 -51 -73 0 -12
-22 -47 -50 -79 -27 -32 -50 -61 -50 -66 0 -5 -29 -53 -65 -106 -36 -54 -65
-102 -65 -108 0 -6 -8 -23 -18 -37 -10 -15 -31 -62 -46 -104 -15 -42 -34 -82
-42 -89 -8 -6 -14 -23 -14 -38 0 -14 -18 -62 -40 -106 -22 -44 -40 -92 -40
-107 0 -14 -9 -48 -21 -75 -39 -92 -91 -248 -99 -303 -5 -30 -14 -85 -20 -122
-20 -119 -11 -123 44 -23 85 157 188 289 353 456 102 103 106 106 134 96 26
-10 31 -8 69 33 22 24 40 47 40 51 0 5 12 16 28 26 15 9 52 38 82 64 30 25 75
55 100 66 25 11 61 37 79 57 29 30 42 36 76 36 36 0 47 6 100 60 60 60 79 71
89 48 3 -8 33 16 78 63 44 46 84 79 102 83 43 11 80 40 120 95 29 39 40 47 59
44 27 -5 63 32 110 111 22 39 32 47 48 43 26 -7 59 24 89 84 12 24 31 54 42
66 17 18 23 20 40 10 16 -11 23 -7 56 32 20 24 55 78 77 120 32 61 46 78 72
86 17 6 47 29 65 52 18 23 60 75 93 115 33 40 79 98 103 130 43 56 316 321
382 369 19 14 54 36 77 48 l43 21 0 -35 c0 -19 -9 -58 -20 -87 -11 -29 -20
-58 -20 -65 0 -7 -11 -36 -23 -65 -13 -29 -32 -75 -42 -103 -26 -73 -94 -220
-129 -277 -8 -13 -7 -23 2 -38 17 -27 15 -39 -9 -85 -16 -32 -19 -50 -14 -93
6 -49 4 -58 -29 -113 -38 -64 -46 -106 -21 -115 16 -6 14 -25 -5 -69 -5 -11
-11 -32 -14 -47 -3 -14 -18 -41 -32 -58 -24 -28 -25 -34 -13 -56 10 -20 10
-32 1 -57 -6 -18 -27 -93 -46 -167 -19 -74 -41 -154 -49 -178 -8 -23 -11 -45
-6 -48 12 -7 12 -83 0 -120 -5 -16 -12 -82 -14 -148 -4 -105 -3 -119 12 -123
15 -4 17 -16 13 -89 -4 -75 -2 -88 15 -107 26 -28 30 -46 53 -247 16 -146 55
-330 70 -330 9 0 32 120 40 210 4 47 10 94 13 105 4 11 9 36 11 55 3 19 12 58
20 85 9 28 16 60 16 71 0 12 7 27 14 34 8 6 20 37 27 68 6 31 18 69 25 84 8
15 14 38 14 52 0 14 8 45 19 68 24 54 41 109 41 131 0 9 9 32 20 51 10 19 27
61 36 93 9 32 22 62 29 68 21 17 35 75 35 142 0 44 6 76 20 103 11 21 26 74
33 117 8 43 19 89 26 101 14 27 17 93 6 143 -6 32 -5 38 13 43 18 6 20 16 21
117 1 60 4 116 7 123 8 20 77 46 124 46 35 0 40 -3 46 -28 4 -15 10 -31 14
-37 19 -24 22 -89 7 -143 -8 -32 -27 -104 -41 -162 -23 -93 -40 -156 -102
-380 -41 -146 -86 -325 -104 -413 -24 -113 -33 -154 -42 -182 -5 -16 -16 -68
-24 -115 -7 -47 -19 -105 -24 -130 -6 -25 -12 -54 -14 -65 -1 -11 -8 -33 -14
-48 -7 -16 -12 -43 -12 -61 0 -18 -4 -57 -9 -87 -6 -30 -13 -81 -16 -115 l-7
-61 29 -1 c15 0 39 -3 54 -7 21 -5 27 -2 37 20 7 14 12 38 12 52 0 14 4 42 9
62 5 20 15 68 21 106 7 39 20 102 30 140 10 39 23 104 30 145 6 41 18 106 26
143 8 38 23 112 34 165 11 53 24 113 29 132 17 63 20 73 67 265 25 105 52 204
59 221 7 16 20 61 29 100 9 38 21 78 26 89 5 11 15 43 23 70 8 28 29 97 46
155 18 58 37 122 43 143 14 45 47 51 72 12 9 -14 22 -25 29 -25 7 0 32 -27 55
-60 24 -33 46 -60 51 -60 7 0 24 -35 52 -107 4 -12 21 -29 37 -37 18 -9 35
-31 47 -60 13 -30 26 -46 39 -48 24 -3 24 -10 2 -91 -12 -45 -13 -62 -4 -76 9
-15 9 -32 -1 -76 -12 -53 -11 -59 7 -84 18 -25 20 -41 18 -152 -3 -169 -35
-306 -107 -466 -15 -35 -24 -65 -20 -67 12 -8 151 131 177 177 27 49 120 236
158 320 22 48 30 57 46 52 15 -5 21 1 29 32 6 21 14 56 17 78 9 57 22 77 43
70 22 -7 31 11 38 70 3 22 11 63 18 90 11 44 16 50 38 48 27 -2 29 3 42 89 15
108 15 108 38 108 19 0 24 9 35 53 6 29 12 60 12 69 0 8 11 23 24 31 18 13 25
28 31 74 5 42 12 63 28 75 16 13 22 30 25 81 4 55 7 66 27 75 24 11 35 47 35
118 0 32 5 46 19 54 15 8 21 26 26 85 5 49 12 78 22 83 9 5 16 31 19 68 3 32
12 73 20 91 11 23 13 50 8 97 -5 44 -1 91 11 152 10 49 15 111 13 141 -5 60
17 107 60 129 34 17 62 45 79 81 8 18 22 33 31 33 8 0 20 7 27 17 25 33 38
-42 43 -252 4 -195 5 -201 28 -222 25 -23 30 -44 15 -71 -5 -9 -12 -36 -16
-59 -6 -38 -5 -42 17 -45 14 -2 22 -9 19 -18 -2 -8 -8 -39 -13 -69 -7 -44 -6
-57 8 -72 13 -14 16 -34 13 -101 -4 -80 -3 -83 19 -86 21 -3 22 -8 22 -87 0
-67 3 -84 16 -89 14 -5 15 -17 9 -82 -6 -69 -5 -78 14 -98 19 -21 21 -28 12
-67 -15 -66 -13 -103 10 -175 15 -47 19 -77 15 -109 -10 -63 2 -115 25 -115
17 0 19 -8 19 -89 0 -70 4 -93 18 -112 10 -13 24 -53 31 -89 19 -96 20 -98 54
-137 17 -19 32 -45 32 -57 1 -11 2 -56 3 -99 l2 -79 29 7 28 6 13 -93 c13 -98
21 -118 49 -118 14 0 20 -15 29 -64 7 -35 12 -72 12 -82 0 -10 13 -32 29 -49
19 -19 36 -52 45 -89 17 -65 33 -89 52 -82 16 6 51 -35 125 -151 33 -51 70
-100 82 -108 13 -8 30 -26 37 -40 7 -13 20 -27 28 -30 21 -8 34 16 18 35 -7 8
-16 30 -19 48 -4 18 -17 61 -30 95 -13 34 -30 96 -36 137 -7 41 -15 87 -17
101 -4 20 0 28 16 32 23 6 24 16 6 119 -15 84 -12 118 11 118 11 0 14 16 12
80 -1 44 3 85 8 92 29 36 33 119 8 145 -23 23 -18 50 14 72 29 21 29 22 24 96
-6 72 -5 75 16 75 30 0 35 21 20 82 -7 29 -12 94 -11 143 1 50 -3 102 -9 117
-6 15 -8 36 -4 45 14 33 6 97 -20 160 -14 35 -25 80 -25 100 -1 22 -13 61 -30
93 -31 57 -37 89 -20 106 7 7 -4 36 -31 88 -29 56 -38 81 -30 89 17 17 13 40
-19 103 -32 63 -36 84 -20 100 7 7 -2 28 -29 66 -43 61 -63 101 -81 163 -7 22
-18 47 -24 55 -24 30 -50 104 -47 132 2 19 -7 44 -23 69 -14 21 -26 43 -26 48
0 5 -7 14 -15 21 -8 7 -15 23 -15 35 0 12 -16 54 -35 91 -19 38 -35 75 -35 82
0 18 -135 201 -242 328 -49 57 -73 104 -53 104 11 0 101 -45 113 -57 7 -7 27
-19 45 -28 18 -8 46 -28 62 -43 17 -15 50 -42 75 -59 46 -31 540 -520 540
-533 0 -4 23 -32 51 -61 103 -109 226 -256 291 -349 37 -52 97 -133 133 -180
37 -47 80 -112 97 -145 17 -33 34 -62 37 -65 12 -9 137 -262 156 -315 10 -27
24 -57 32 -66 7 -8 13 -23 13 -32 0 -9 4 -18 9 -22 6 -3 24 -31 42 -63 34 -60
118 -152 139 -152 7 0 4 12 -9 32 -75 114 -121 250 -136 401 -3 27 -10 68 -16
90 -7 28 -7 43 0 50 22 22 10 66 -40 143 -45 69 -49 79 -35 89 23 17 21 23
-29 90 -41 54 -43 61 -31 80 12 18 11 25 -7 50 -11 17 -38 49 -60 71 -29 32
-37 47 -32 63 7 22 -21 65 -82 126 -23 23 -33 42 -33 64 0 43 -20 77 -73 130
-28 26 -44 51 -42 61 4 21 -29 53 -112 109 -48 32 -63 47 -63 66 0 25 -55 79
-107 105 -36 18 -73 51 -73 64 0 12 -25 27 -122 71 -45 20 -58 31 -58 48 0 26
-37 53 -133 98 -42 19 -72 40 -77 53 -8 22 -54 48 -150 86 -97 39 -141 49
-259 61 -144 14 -134 11 -150 45 -7 16 -18 40 -25 54 -8 18 -21 26 -44 28 -27
3 -38 -3 -69 -37 -20 -23 -44 -41 -52 -41 -19 0 -131 109 -131 127 0 7 17 32
38 56 20 24 47 57 58 73 19 25 25 27 42 17 18 -11 25 -8 55 26 18 21 42 52 53
69 10 18 26 32 36 32 20 0 89 98 110 155 6 19 21 38 32 43 12 5 32 31 46 56
14 26 31 60 39 74 8 15 22 33 32 40 19 13 49 67 49 88 0 7 13 28 29 46 36 43
50 69 56 110 8 59 34 141 46 149 11 7 27 65 49 184 21 115 39 147 58 108 8
-17 0 -173 -14 -280 -5 -43 -3 -58 15 -89 17 -28 23 -57 25 -122 3 -75 6 -87
23 -93 16 -6 21 -20 27 -79 5 -59 10 -75 32 -93 21 -18 26 -34 31 -87 4 -50
11 -70 28 -87 17 -16 25 -39 30 -80 3 -32 7 -65 8 -73 1 -8 13 -20 27 -27 19
-9 27 -23 32 -59 4 -25 15 -55 25 -66 10 -11 18 -25 19 -31 0 -7 2 -20 2 -30
1 -9 19 -36 41 -60 21 -23 48 -60 59 -83 24 -46 47 -69 62 -59 5 3 18 -8 28
-26 9 -17 34 -53 55 -80 29 -38 44 -49 66 -49 21 0 38 -12 69 -49 29 -34 51
-50 75 -55 21 -4 49 -23 76 -50 38 -39 46 -43 63 -33 16 10 23 8 42 -15 26
-29 76 -58 102 -58 10 0 27 -9 38 -19 33 -30 98 -61 128 -61 35 0 68 -13 95
-39 12 -12 25 -21 28 -21 3 0 32 -18 64 -39 87 -59 246 -141 275 -141 24 0 24
1 11 28 -18 33 -298 317 -336 339 -15 9 -35 34 -45 56 -10 21 -48 67 -86 102
-37 34 -68 70 -68 79 0 9 -23 31 -51 48 -37 24 -49 37 -46 50 3 12 -11 38 -40
73 -31 39 -42 61 -38 74 4 14 0 21 -15 26 -24 8 -70 76 -70 103 0 10 -18 36
-41 57 -36 33 -40 41 -35 70 6 29 2 36 -37 68 -37 30 -43 40 -39 65 3 22 -2
34 -20 48 -32 25 -56 62 -62 98 -3 16 -10 32 -16 36 -22 14 -60 75 -60 97 0
13 -10 34 -22 47 -32 32 -68 83 -68 96 0 6 -20 35 -46 66 -25 31 -56 73 -69
94 -13 21 -37 53 -53 72 -16 18 -34 47 -40 65 -12 36 -142 225 -203 295 l-41
48 24 9 c28 11 144 -12 168 -33 8 -8 27 -16 42 -20 15 -3 33 -13 42 -21 8 -8
19 -15 24 -15 6 0 42 -31 81 -70 43 -42 80 -70 92 -70 12 0 46 -22 75 -49 42
-39 64 -51 99 -57 36 -5 49 -13 64 -38 31 -49 67 -79 90 -73 12 3 27 -3 38
-15 30 -34 93 -69 112 -63 12 4 39 -10 79 -40 33 -25 68 -45 78 -45 11 -1 35
-14 54 -30 26 -23 44 -30 77 -30 33 0 50 -7 76 -30 20 -17 46 -30 62 -30 14 0
46 -14 71 -31 25 -17 61 -33 82 -36 20 -3 62 -21 92 -39 30 -18 74 -38 97 -44
24 -6 65 -25 93 -42 47 -29 51 -30 68 -15 17 15 23 15 88 -4 85 -25 263 -41
367 -33 77 7 108 24 43 24 -19 0 -37 4 -40 8 -2 4 -18 9 -35 10 -16 1 -51 11
-76 22 -26 11 -51 20 -56 20 -15 0 -113 47 -152 74 -21 14 -41 26 -45 26 -14
0 -62 51 -62 66 0 8 -29 28 -67 47 -55 26 -68 36 -66 54 3 26 -6 34 -94 77
-54 27 -72 41 -75 58 -2 17 -20 31 -68 55 -36 18 -70 32 -76 32 -18 1 -26 31
-9 31 8 0 15 4 15 9 0 10 -113 66 -154 77 -18 4 -26 13 -26 28 0 21 -18 33
-90 57 -40 13 -70 37 -70 54 0 15 -37 32 -97 46 -26 5 -61 22 -78 38 -20 17
-50 31 -76 35 -88 14 -117 25 -123 49 -5 20 -14 24 -106 35 -74 8 -109 17
-127 32 -25 19 -37 20 -182 16 -86 -2 -193 -10 -239 -17 -109 -17 -120 -6 -57
52 64 60 129 101 196 126 31 12 78 38 104 57 61 47 135 81 151 70 6 -5 24 -18
40 -28 16 -11 50 -39 75 -64 25 -24 52 -43 60 -42 28 4 40 -1 76 -32 81 -70
170 -121 257 -149 34 -10 63 -19 65 -19 12 0 -30 35 -83 71 -136 92 -272 259
-210 259 19 0 10 36 -17 66 -11 11 -19 27 -19 35 0 24 40 55 90 72 35 12 46
21 50 41 5 25 46 56 75 56 7 0 35 22 62 49 67 67 89 78 116 54 12 -10 32 -29
44 -43 19 -21 24 -23 42 -13 18 11 24 7 60 -35 23 -26 41 -50 41 -54 0 -5 15
-8 33 -8 23 0 40 -8 55 -25 12 -14 22 -28 22 -32 0 -4 16 -21 35 -38 23 -22
42 -31 57 -28 16 3 36 -8 67 -37 28 -25 53 -40 70 -40 15 0 47 -16 75 -39 42
-33 51 -37 63 -25 12 12 20 11 51 -5 63 -32 125 -58 182 -76 60 -20 164 -26
166 -10 1 6 -33 28 -75 51 -79 42 -196 117 -243 157 -14 12 -31 41 -37 65 -7
23 -18 42 -25 42 -7 0 -21 9 -31 20 -10 11 -24 20 -32 20 -11 0 -11 4 -3 20 9
17 7 26 -12 49 -13 16 -38 39 -55 51 -18 12 -33 29 -33 37 0 30 -30 70 -79
103 -46 32 -49 36 -34 52 14 16 13 20 -17 55 -19 21 -41 43 -50 50 -10 7 -20
31 -24 54 -7 41 -6 43 62 113 72 74 102 120 102 156 0 18 -3 19 -22 9 -13 -6
-43 -30 -68 -54 -58 -54 -145 -106 -165 -99 -9 4 -22 21 -29 39 -8 18 -35 48
-60 66 -25 19 -48 43 -52 54 -9 30 -55 74 -94 93 -19 9 -51 33 -72 53 -20 20
-50 40 -67 44 -18 4 -42 20 -56 40 -14 18 -38 37 -53 43 -15 6 -36 14 -47 18
-11 4 -25 8 -32 9 -7 0 -27 17 -46 37 -25 28 -51 42 -107 59 -41 12 -84 32
-97 45 -43 43 -148 89 -263 114 -30 7 -66 16 -80 20 -14 5 -46 14 -73 20 -26
7 -50 16 -52 21 -21 33 182 15 360 -32 22 -5 58 -15 80 -20 21 -6 44 -14 50
-18 5 -5 28 -14 50 -21 37 -11 131 -48 180 -70 46 -20 166 -76 260 -120 253
-119 378 -172 460 -195 33 -10 98 -30 145 -45 83 -27 113 -34 274 -65 98 -19
179 -20 174 -2 -3 6 -31 15 -63 19 -32 4 -66 14 -75 23 -9 8 -22 15 -28 15
-23 0 -178 69 -257 114 -44 25 -85 57 -92 70 -9 18 -30 30 -73 43 -36 10 -62
24 -65 34 -3 10 -25 21 -53 28 -66 17 -97 34 -97 54 0 25 -23 37 -70 37 -28 0
-44 6 -51 18 -8 11 -36 23 -78 31 -36 7 -83 22 -103 32 -21 10 -49 19 -64 19
-37 0 -89 20 -86 33 1 6 -11 15 -28 20 -16 5 -37 12 -45 15 -8 2 -37 6 -65 9
-33 3 -58 12 -73 26 -18 16 -39 22 -106 26 -48 4 -90 12 -100 20 -20 17 -95
31 -102 20 -3 -5 -31 -9 -63 -9 -36 0 -85 -10 -131 -26 -54 -19 -76 -22 -84
-14 -8 9 -2 20 24 42 36 31 124 78 146 78 7 0 22 13 33 29 11 15 35 34 53 42
18 7 38 19 44 27 18 24 48 6 98 -58 43 -57 66 -73 66 -50 0 14 -29 71 -46 91
-8 8 -17 35 -20 60 -6 48 -13 41 91 102 16 10 42 30 56 45 14 15 43 36 64 47
26 13 41 29 46 48 10 36 25 54 69 82 42 26 198 107 255 132 l40 17 -33 4 c-39
4 -125 -20 -210 -59 -35 -16 -66 -29 -70 -29 -4 0 -19 -6 -33 -14 -56 -29
-130 -49 -142 -37 -7 7 -17 3 -34 -15 -12 -14 -23 -30 -23 -36 0 -5 -7 -7 -17
-4 -10 4 -26 -3 -42 -18 -14 -14 -38 -28 -53 -31 -25 -7 -29 -3 -55 54 -15 34
-36 64 -45 67 -10 3 -18 14 -18 25 0 11 -23 43 -52 72 -29 29 -70 72 -91 97
-22 25 -54 52 -71 60 -39 19 -44 43 -11 58 31 14 248 17 293 3 50 -15 38 5
-15 24 -56 20 -176 45 -215 45 -16 0 -28 5 -28 10 0 6 56 10 149 10 98 0 172
5 213 15 85 20 219 68 249 88 13 9 29 17 35 17 6 0 37 24 69 53 31 28 70 59
85 67 15 8 45 27 66 41 21 14 55 31 74 39 19 8 53 34 74 59 22 26 66 72 99
104 33 32 57 60 55 63 -3 2 -44 -16 -91 -40 -47 -25 -114 -54 -149 -66 -35
-11 -83 -34 -106 -51 -24 -18 -63 -37 -87 -44 -23 -8 -61 -25 -84 -39 -22 -14
-47 -26 -55 -26 -14 0 -34 -7 -91 -31 -89 -38 -136 -49 -202 -49 -58 0 -73 3
-73 15 0 8 1 15 3 15 6 0 167 59 205 74 41 18 56 36 27 36 -21 0 -111 -24
-202 -55 -76 -25 -90 -26 -359 -31 -153 -2 -336 -7 -407 -10 -136 -6 -160 -3
-151 20 4 11 35 15 142 18 106 3 146 8 177 22 148 68 185 91 185 115 0 27 80
71 138 76 86 8 162 28 179 48 18 20 17 20 -7 13 -14 -4 -54 -11 -90 -16 -52
-7 -68 -6 -80 6 -12 12 -12 14 3 14 10 0 21 8 24 18 4 9 25 35 47 58 57 56 97
103 121 140 11 17 37 57 59 89 21 32 46 79 55 105 9 26 30 63 46 83 84 98 160
205 153 213 -3 2 -45 -34 -94 -80 -78 -74 -95 -85 -135 -90 -30 -4 -54 -15
-69 -31 -12 -13 -35 -27 -49 -30 -15 -3 -42 -21 -60 -40 -18 -19 -39 -35 -47
-35 -7 0 -21 -15 -30 -32 -9 -18 -31 -47 -50 -65 -19 -18 -34 -41 -34 -52 0
-12 -10 -23 -28 -29 -18 -6 -35 -24 -46 -46 -10 -21 -28 -41 -41 -46 -13 -5
-34 -23 -46 -39 -13 -17 -31 -31 -41 -31 -12 0 -23 -11 -29 -30 -6 -16 -20
-32 -32 -36 -12 -4 -27 -13 -35 -20 -15 -16 -72 -19 -72 -5 0 5 5 22 11 38 6
15 12 47 14 70 4 52 21 83 44 83 10 0 36 13 58 29 22 16 50 32 63 36 13 4 48
33 79 65 31 31 66 62 79 69 13 7 22 21 22 36 0 14 9 30 20 37 11 7 20 21 20
30 0 10 11 27 24 39 15 13 22 28 19 42 -3 14 11 54 33 97 42 83 84 195 84 223
0 41 -28 4 -95 -122 -83 -157 -135 -218 -213 -250 -18 -8 -42 -25 -53 -39 -21
-27 -92 -72 -113 -72 -7 0 -10 16 -7 48 l3 47 -27 -25 c-15 -14 -40 -54 -56
-88 -18 -39 -48 -82 -78 -111 -47 -45 -91 -112 -91 -138 0 -23 -39 -14 -45 10
-6 21 50 143 100 220 18 28 55 136 55 160 0 10 6 39 14 65 23 79 36 153 42
242 3 47 12 104 21 127 8 23 13 50 9 59 -3 9 3 27 14 41 11 14 20 33 20 42 0
9 9 31 20 49 11 18 20 46 20 62 0 16 5 32 10 35 6 3 10 21 10 39 0 21 8 40 21
52 15 14 19 26 15 47 -3 16 0 52 8 81 15 53 28 156 21 156 -3 0 -17 -19 -31
-42z m-86 -2262 c58 -65 99 -97 167 -129 17 -8 39 -26 48 -41 10 -14 24 -26
33 -26 8 0 34 -21 57 -46 23 -26 62 -59 86 -74 l44 -28 -29 -18 c-16 -10 -33
-24 -37 -31 -4 -7 -28 -25 -53 -39 -55 -32 -70 -24 -58 33 4 21 7 45 6 53 -13
81 -19 104 -28 107 -14 5 -24 -42 -24 -108 0 -35 -7 -61 -25 -89 -34 -53 -55
-53 -55 1 0 23 -9 58 -19 78 -11 20 -29 66 -42 104 -12 37 -27 67 -32 67 -9 0
-7 -26 10 -158 3 -24 0 -55 -6 -70 -6 -15 -15 -40 -21 -55 l-10 -29 -30 32
c-29 31 -30 36 -30 124 0 50 -5 107 -11 126 -14 48 -25 308 -11 295 5 -5 37
-41 70 -79z m-572 29 c6 -25 24 -35 24 -13 0 9 3 9 11 1 9 -9 8 -29 -5 -83
-12 -49 -15 -87 -10 -126 8 -64 -7 -83 -63 -84 -61 0 -68 52 -23 165 17 42 30
89 30 104 0 59 24 83 36 36z m304 -72 c21 -44 21 -49 6 -80 -21 -45 -46 -44
-46 3 0 19 -5 44 -11 56 -13 24 -4 68 15 68 8 0 24 -21 36 -47z m-141 -75 c5
-13 21 -34 35 -47 30 -28 34 -66 9 -93 -17 -19 -58 -24 -68 -8 -3 6 -24 10
-46 10 -25 0 -39 5 -39 13 0 15 47 116 62 134 16 20 38 16 47 -9z m239 -130
c13 -13 16 -85 6 -113 -6 -14 -8 -14 -23 0 -9 8 -27 23 -40 34 l-24 18 29 36
c32 41 35 42 52 25z m-449 -185 c7 -27 21 -75 32 -109 10 -33 19 -69 19 -80 1
-10 9 -33 18 -50 9 -17 32 -60 50 -95 36 -70 90 -144 143 -199 l34 -35 -3 -90
c-1 -49 -7 -94 -13 -100 -14 -14 -41 23 -65 89 -19 50 -19 50 -22 19 -2 -18 2
-41 7 -52 18 -32 14 -61 -6 -54 -24 9 -93 62 -119 93 -12 14 -39 34 -61 45
-21 10 -63 42 -93 70 -46 42 -55 47 -58 31 -2 -10 5 -30 15 -45 11 -14 25 -41
32 -58 7 -18 34 -51 60 -74 25 -23 55 -56 67 -73 l21 -30 -69 -28 c-38 -15
-84 -39 -102 -53 -19 -15 -47 -25 -67 -26 -19 0 -43 -4 -53 -8 -17 -7 -15 -10
16 -29 19 -12 46 -22 58 -22 37 0 154 23 164 32 26 22 136 -11 136 -42 0 -6
-24 -21 -52 -34 l-53 -24 55 -1 c30 -1 62 -5 70 -11 16 -10 18 -9 -55 -30 -43
-12 -78 -26 -110 -43 -99 -52 -152 -83 -163 -93 -7 -7 -34 -30 -60 -51 -26
-21 -50 -42 -53 -46 -3 -4 -11 -1 -18 7 -9 11 -10 29 -2 73 5 32 9 92 8 133
-2 41 1 99 6 128 7 45 5 57 -9 73 -14 16 -15 24 -5 61 10 37 9 55 -9 123 -11
44 -29 97 -40 118 -11 20 -20 42 -20 48 0 6 29 43 65 82 146 162 217 294 259
480 10 42 32 32 45 -20z m339 -65 c47 -27 72 -48 72 -59 0 -10 8 -24 18 -31
10 -7 21 -21 25 -30 10 -28 -34 -23 -101 11 -68 34 -162 137 -147 161 8 12 43
-1 133 -52z m807 46 c32 -21 31 -29 -4 -50 -17 -10 -38 -32 -47 -50 -10 -18
-28 -35 -39 -38 -14 -4 -26 -19 -33 -44 -6 -21 -29 -63 -51 -93 -22 -29 -61
-84 -87 -121 -26 -38 -54 -68 -63 -68 -19 0 -59 26 -51 32 3 2 17 12 32 21 18
11 25 23 21 33 -3 8 3 25 15 37 11 12 25 38 31 58 7 23 20 40 34 44 21 7 21 8
-5 12 -25 4 -42 33 -19 33 11 0 145 119 150 133 6 20 64 77 78 77 8 0 25 -7
38 -16z m-318 -240 c25 -5 29 -10 25 -29 -2 -12 -15 -28 -28 -35 -32 -18 -52
0 -46 40 5 33 5 33 49 24z m-137 -273 c0 -21 -48 -66 -82 -77 -17 -5 -28 1
-50 25 -37 41 -37 65 0 57 15 -3 41 -2 57 3 51 16 75 13 75 -8z m294 -83 c82
-60 200 -178 236 -237 14 -22 32 -41 40 -41 8 0 35 -30 60 -66 68 -99 90 -124
110 -124 13 0 27 -18 46 -60 23 -52 30 -60 54 -60 22 0 30 -8 46 -41 10 -24
34 -52 55 -66 20 -13 44 -41 55 -64 11 -26 30 -47 51 -58 l34 -17 -21 -27
c-21 -26 -60 -37 -60 -17 0 20 -32 9 -62 -20 -31 -32 -72 -42 -62 -15 7 17 3
18 -20 9 -9 -3 -16 -12 -16 -18 0 -7 -16 -27 -35 -46 -27 -26 -37 -31 -48 -21
-10 8 -22 8 -40 2 -21 -8 -26 -6 -36 16 -9 20 -9 28 0 34 8 5 4 17 -14 40 -14
19 -35 60 -47 92 -12 32 -35 73 -51 92 -17 19 -29 44 -29 60 0 21 -16 45 -56
87 -42 44 -54 62 -45 71 6 6 11 16 11 22 0 6 -35 65 -78 131 -107 163 -152
252 -171 334 -6 25 -11 48 -11 53 0 19 39 2 104 -45z m-624 -15 c19 -24 21
-36 15 -93 -4 -38 -13 -72 -22 -83 -16 -17 -17 -16 -30 14 -10 24 -13 162 -4
187 4 9 23 -2 41 -25z m172 -188 c-3 -53 -13 -97 -38 -182 -3 -13 -13 -23 -21
-23 -11 0 -13 9 -9 38 3 20 11 77 16 126 12 101 15 108 38 104 14 -3 16 -14
14 -63z m242 -147 c3 -13 7 -63 10 -113 3 -49 12 -112 21 -140 9 -27 20 -72
25 -98 6 -27 19 -60 30 -74 11 -14 25 -44 31 -67 6 -22 22 -53 35 -69 13 -16
24 -37 24 -48 0 -29 28 -79 44 -79 14 0 27 -28 43 -90 6 -23 18 -39 36 -48 17
-8 27 -21 27 -35 0 -31 -58 -120 -74 -114 -13 5 -36 -31 -36 -57 0 -37 -42
-129 -87 -191 -59 -81 -85 -123 -113 -183 -24 -53 -39 -59 -87 -34 -21 11 -51
23 -68 27 -149 30 -196 36 -240 31 -27 -4 -70 -9 -94 -11 -25 -3 -50 -10 -56
-15 -7 -6 -30 -11 -51 -13 -102 -6 6 69 120 83 78 9 121 29 66 30 -45 0 -80
10 -80 21 0 5 16 27 35 48 68 75 327 180 448 181 62 0 42 17 -29 23 -76 7
-212 -2 -220 -14 -3 -5 -21 -9 -40 -9 -20 0 -44 -5 -55 -11 -11 -5 -32 -9 -47
-7 l-27 3 41 45 c23 25 53 65 67 90 30 53 61 164 54 197 -2 13 1 51 8 83 10
50 10 60 -1 60 -16 0 -70 -70 -89 -117 -8 -18 -18 -33 -23 -33 -5 0 -17 -20
-26 -45 -10 -24 -28 -60 -41 -79 -13 -18 -26 -45 -30 -57 -4 -13 -17 -35 -30
-49 -12 -14 -30 -51 -40 -83 -15 -52 -37 -79 -51 -64 -3 2 2 22 10 43 17 45
70 220 85 279 10 43 51 227 57 260 2 11 23 32 46 48 24 15 59 39 78 53 40 29
71 28 85 -3 5 -13 13 -23 17 -23 3 0 18 -25 32 -55 14 -30 31 -55 38 -55 7 0
24 -17 38 -37 53 -79 128 -143 165 -143 13 0 10 8 -15 36 -17 20 -47 70 -67
113 -20 42 -40 84 -45 94 -6 12 -5 23 1 31 8 9 4 27 -13 62 -13 27 -29 61 -35
77 -6 15 -18 27 -27 27 -23 0 -13 61 15 97 12 14 21 41 21 59 0 18 9 48 20 66
11 18 20 47 20 64 0 48 36 74 44 32z m-540 -218 c-4 -38 -4 -70 -1 -70 3 0 15
16 27 35 12 19 28 35 36 35 21 0 18 -68 -10 -200 -19 -88 -29 -117 -46 -130
-16 -12 -20 -23 -16 -37 4 -12 -3 -56 -15 -99 -12 -44 -29 -117 -39 -164 -32
-152 -42 -179 -75 -205 l-31 -23 -35 56 -34 57 -3 -33 c-2 -18 2 -40 9 -48 12
-14 6 -28 -12 -30 -5 -1 -11 -2 -13 -3 -8 -2 16 -65 32 -84 14 -16 14 -19 -4
-32 -10 -8 -22 -15 -26 -15 -12 0 -9 -55 2 -66 8 -8 6 -15 -5 -24 -25 -21 -32
0 -40 109 -3 53 -13 128 -21 166 -8 39 -17 84 -21 100 -3 17 -14 39 -24 50
-12 13 -16 29 -12 43 3 13 1 33 -5 45 -6 12 -13 33 -15 47 -5 24 -54 155 -92
246 -24 57 -11 80 95 170 126 107 257 170 363 173 l37 1 -6 -70z m-561 -469
c-2 -50 -11 -146 -20 -214 -16 -109 -20 -280 -11 -412 l3 -40 -52 -17 c-36
-12 -65 -31 -90 -59 -44 -49 -97 -138 -88 -147 3 -4 34 7 68 24 62 32 175 70
182 62 2 -2 11 -29 19 -60 8 -31 21 -70 30 -86 9 -17 16 -37 16 -44 1 -7 9
-31 20 -53 11 -22 19 -43 20 -46 0 -4 -18 -9 -40 -13 -25 -4 -43 -14 -50 -26
-8 -14 -21 -20 -46 -20 -27 0 -37 -5 -41 -19 -5 -20 -35 -35 -91 -46 -21 -4
-32 -12 -30 -22 2 -9 -15 -22 -48 -36 -29 -12 -60 -32 -70 -45 -11 -12 -34
-25 -51 -28 -27 -5 -33 -3 -33 11 0 10 8 23 17 30 17 13 31 87 32 181 1 32 6
54 14 57 7 3 18 43 26 103 7 54 21 115 32 136 10 20 19 53 19 71 0 54 11 97
26 97 14 0 23 35 27 110 2 25 8 55 15 67 7 12 12 35 12 52 0 16 5 33 10 36 6
4 8 10 6 14 -8 12 19 104 38 133 9 14 15 34 14 44 -3 16 50 187 84 277 21 53
33 24 31 -72z m935 -789 c23 -12 42 -25 42 -27 0 -9 -51 -25 -94 -30 -22 -3
-52 -9 -66 -14 -25 -9 -73 -19 -202 -41 -55 -10 -68 -16 -68 -31 0 -22 -5 -25
-56 -33 -37 -7 -43 -5 -58 19 -25 39 -13 65 46 103 47 30 56 32 90 24 26 -7
40 -7 45 1 4 6 1 13 -5 15 -16 5 -15 29 1 36 6 3 73 4 147 3 117 -3 141 -6
178 -25z m-523 -169 c23 -31 -4 -70 -40 -57 -15 6 -21 55 -8 67 12 12 36 7 48
-10z m539 -2 c3 -5 -9 -24 -27 -42 -19 -19 -80 -88 -137 -154 -58 -66 -133
-147 -167 -181 -35 -34 -63 -69 -63 -81 0 -19 -48 -73 -66 -73 -5 0 -20 -15
-34 -33 -32 -42 -125 -133 -179 -175 -25 -20 -44 -45 -47 -62 -4 -15 -16 -32
-28 -38 -33 -15 -146 -122 -146 -138 0 -24 -114 -72 -126 -53 -8 13 12 70 62
175 24 50 44 98 44 107 0 9 4 18 9 21 5 3 12 18 16 33 13 54 108 235 132 250
12 8 32 13 44 10 12 -3 32 -1 45 5 22 10 29 7 72 -35 27 -26 51 -45 54 -42 3
3 -3 24 -14 46 -29 61 -22 83 30 90 33 4 52 14 77 42 25 27 42 37 64 37 22 0
41 11 68 39 22 21 48 41 60 45 11 4 33 24 48 46 34 49 116 126 150 142 14 6
25 15 25 20 0 11 27 10 34 -1z m-936 -526 c2 -1 -14 -45 -34 -96 -20 -52 -49
-129 -65 -171 -15 -42 -42 -104 -58 -137 -30 -59 -32 -60 -58 -50 -15 6 -42
19 -60 30 -20 12 -40 18 -55 14 -14 -4 -45 4 -80 19 -46 21 -63 24 -84 16 -40
-15 -55 2 -48 54 4 22 13 49 22 58 13 16 25 62 36 147 2 14 10 29 18 35 8 6
19 25 25 41 6 18 16 28 24 26 8 -2 71 -4 141 -5 105 -2 133 1 160 16 24 13 45
16 73 12 22 -4 41 -7 43 -9z m259 -855 c30 -16 60 -30 67 -30 18 0 77 -46 69
-53 -3 -4 -18 -7 -32 -7 -82 -1 -270 -88 -372 -172 -75 -62 -94 -46 -58 52 33
90 15 94 -57 13 -33 -37 -71 -84 -84 -103 -34 -49 -46 -60 -65 -60 -14 0 -16
7 -10 40 5 32 4 40 -9 40 -8 0 -18 -4 -21 -10 -3 -5 -10 -10 -16 -10 -33 0 28
151 70 170 14 7 50 14 79 15 29 2 68 12 86 23 20 12 44 18 59 15 18 -4 35 4
63 30 48 42 76 57 108 57 14 0 28 5 31 10 10 17 34 11 92 -20z m63 -191 c0 -7
-28 -44 -63 -83 -34 -39 -97 -114 -139 -166 -41 -52 -103 -124 -137 -160 -63
-66 -69 -78 -50 -97 8 -8 -2 -27 -35 -69 -55 -70 -56 -71 -79 -107 -18 -27
-18 -29 -1 -41 22 -17 14 -50 -26 -110 -22 -33 -29 -51 -24 -72 4 -20 0 -35
-13 -49 -60 -66 -78 -105 -48 -105 18 0 20 -24 3 -42 -39 -41 -62 -85 -60
-113 2 -19 -9 -52 -28 -86 -33 -61 -37 -79 -15 -79 8 0 15 -2 15 -4 0 -15 -25
-66 -47 -99 -18 -25 -23 -41 -16 -48 11 -11 6 -56 -7 -64 -25 -16 -70 59 -70
116 0 10 -13 34 -30 52 -16 19 -30 41 -30 50 0 24 -27 81 -48 100 -11 10 -27
37 -36 61 -9 23 -30 52 -46 65 -22 16 -30 30 -30 52 0 39 91 303 135 389 40
80 60 88 69 28 16 -94 23 -258 14 -308 -5 -29 -7 -55 -3 -58 18 -19 99 117
118 198 17 76 11 166 -12 196 -30 39 -28 82 5 94 28 11 39 6 82 -37 37 -38 55
-26 30 20 -14 27 -34 47 -46 47 -6 0 -13 7 -16 16 -7 17 12 40 34 42 36 2 95
22 119 39 38 29 38 44 2 37 -37 -8 -43 12 -8 25 102 40 158 65 163 73 3 5 -2
15 -12 22 -17 13 -17 15 -1 39 18 29 136 125 207 171 94 61 180 91 180 65z
m-1550 -1216 c29 -78 49 -146 45 -152 -3 -6 -24 -11 -46 -11 -21 0 -39 -4 -39
-10 0 -5 6 -10 14 -10 8 0 17 -9 21 -19 3 -11 14 -23 24 -26 21 -6 44 -55 39
-81 -2 -11 -21 -21 -53 -30 -79 -21 -75 -24 -75 79 0 157 -19 358 -40 436 -12
41 -18 81 -14 90 8 21 55 -79 124 -266z m232 -263 c19 -33 15 -90 -7 -90 -13
0 -35 63 -35 99 0 30 22 26 42 -9z"/>
</g>
</svg>
